<svg width="148" height="18" viewBox="0 0 148 18" fill="none" xmlns="http://www.w3.org/2000/svg">
<path d="M6.36328 0.6875V2.03516C5.87891 2.16797 5.50781 2.375 5.25 2.65625C5 2.92969 4.875 3.26953 4.875 3.67578C4.875 4.06641 4.98047 4.41016 5.19141 4.70703C5.40234 4.99609 5.74609 5.27344 6.22266 5.53906C6.55078 5.71875 7.29297 6.0625 8.44922 6.57031C9.15234 6.875 9.69531 7.15234 10.0781 7.40234C10.4688 7.64453 10.8359 7.94922 11.1797 8.31641C12.1016 9.28516 12.5625 10.4375 12.5625 11.7734C12.5625 12.7812 12.3125 13.7031 11.8125 14.5391C11.3125 15.375 10.625 16.0312 9.75 16.5078C9.28125 16.7578 8.76562 16.9531 8.20312 17.0938C7.64844 17.2422 7.12891 17.3164 6.64453 17.3164V15.9805C7.32422 15.8164 7.8125 15.5898 8.10938 15.3008C8.41406 15.0039 8.56641 14.6055 8.56641 14.1055C8.56641 13.582 8.33203 13.1211 7.86328 12.7227C7.55078 12.4648 6.95703 12.1445 6.08203 11.7617C5.12109 11.3398 4.46094 11.0391 4.10156 10.8594C3.75 10.6797 3.41016 10.4688 3.08203 10.2266C1.61328 9.17969 0.878906 7.78516 0.878906 6.04297C0.878906 5.15234 1.0625 4.33203 1.42969 3.58203C1.79688 2.82422 2.30859 2.21484 2.96484 1.75391C3.87891 1.11328 5.01172 0.757812 6.36328 0.6875ZM7.28906 2.03516V0.746094C7.75781 0.777344 8.16406 0.839844 8.50781 0.933594C8.85156 1.01953 9.33984 1.19531 9.97266 1.46094C10.1289 1.52344 10.2578 1.55469 10.3594 1.55469C10.5078 1.55469 10.6172 1.50391 10.6875 1.40234L10.9453 1.0625C11.0703 0.890625 11.2227 0.804688 11.4023 0.804688C11.6133 0.804688 11.7656 0.882813 11.8594 1.03906C11.9609 1.1875 12.0117 1.42578 12.0117 1.75391V5.62109C12.0117 5.84766 11.9453 6.03516 11.8125 6.18359C11.6875 6.32422 11.5234 6.39453 11.3203 6.39453C11.1641 6.39453 11.0195 6.34375 10.8867 6.24219C10.8164 6.17969 10.7578 6.10547 10.7109 6.01953C10.6719 5.92578 10.6328 5.77344 10.5938 5.5625C10.5078 5.17969 10.3594 4.78516 10.1484 4.37891C9.9375 3.97266 9.69141 3.60937 9.41016 3.28906C8.84766 2.65625 8.14062 2.23828 7.28906 2.03516ZM5.75391 15.9805V17.3164C5.11328 17.3164 4.40625 17.1328 3.63281 16.7656C3.34375 16.6328 3.14453 16.5469 3.03516 16.5078C2.92578 16.4688 2.82031 16.4492 2.71875 16.4492C2.5625 16.4492 2.44531 16.4766 2.36719 16.5312C2.28906 16.5781 2.16406 16.7031 1.99219 16.9062C1.85156 17.0781 1.69922 17.1641 1.53516 17.1641C1.09766 17.1641 0.878906 16.8281 0.878906 16.1562V11.8906C0.878906 11.6719 0.941406 11.4883 1.06641 11.3398C1.19141 11.1836 1.34766 11.1016 1.53516 11.0938C1.70703 11.0859 1.83984 11.1367 1.93359 11.2461C2.03516 11.3477 2.12109 11.5312 2.19141 11.7969C2.37109 12.4688 2.62891 13.0977 2.96484 13.6836C3.30859 14.2695 3.70703 14.7656 4.16016 15.1719C4.62109 15.5938 5.15234 15.8633 5.75391 15.9805ZM22.0547 8.24609H23.9648V3.13672C23.9648 2.69922 23.8516 2.44141 23.625 2.36328L23.25 2.24609C22.9531 2.15234 22.8047 1.94141 22.8047 1.61328C22.8047 1.20703 23.0859 1.00391 23.6484 1.00391H23.9531H29.168H29.4844C30.0703 1.00391 30.3633 1.20703 30.3633 1.61328C30.3633 1.93359 30.207 2.14453 29.8945 2.24609C29.6367 2.33203 29.4844 2.38672 29.4375 2.41016C29.3984 2.42578 29.3555 2.46875 29.3086 2.53906C29.2148 2.66406 29.168 2.86328 29.168 3.13672V14.8203C29.168 15.25 29.2852 15.5117 29.5195 15.6055L29.8945 15.7344C30.207 15.8359 30.3633 16.0508 30.3633 16.3789C30.3633 16.793 30.0703 17 29.4844 17H29.168H23.9531H23.625C23.0781 17 22.8047 16.793 22.8047 16.3789C22.8047 16.0508 22.9531 15.8359 23.25 15.7344L23.625 15.6055C23.8516 15.5352 23.9648 15.2734 23.9648 14.8203V9.40625H22.0547V8.24609ZM21.0703 17H15.8438H15.5391C15.2578 17 15.0391 16.9492 14.8828 16.8477C14.7344 16.7383 14.6602 16.5859 14.6602 16.3906C14.6602 16.0703 14.8164 15.8594 15.1289 15.7578C15.3867 15.6719 15.5352 15.6211 15.5742 15.6055C15.6211 15.582 15.668 15.5352 15.7148 15.4648C15.8086 15.3398 15.8555 15.1406 15.8555 14.8672V3.13672C15.8555 2.86328 15.8086 2.66406 15.7148 2.53906C15.668 2.46875 15.6211 2.42578 15.5742 2.41016C15.5352 2.38672 15.3867 2.33203 15.1289 2.24609C14.8164 2.14453 14.6602 1.93359 14.6602 1.61328C14.6602 1.41797 14.7344 1.26953 14.8828 1.16797C15.0391 1.05859 15.2578 1.00391 15.5391 1.00391H15.8438H21.0703H21.375C21.9297 1.00391 22.207 1.20703 22.207 1.61328C22.207 1.94141 22.0586 2.15234 21.7617 2.24609L21.3984 2.36328C21.1719 2.44141 21.0586 2.69922 21.0586 3.13672V14.8672C21.0586 15.3047 21.1719 15.5625 21.3984 15.6406L21.7617 15.7578C22.0586 15.8516 22.207 16.0625 22.207 16.3906C22.207 16.7969 21.9297 17 21.375 17H21.0703ZM38.6953 1.95312C38.2969 2.09375 38.0156 2.28516 37.8516 2.52734C37.6875 2.76953 37.6055 3.125 37.6055 3.59375V14.0703C37.6055 14.7578 37.6992 15.2422 37.8867 15.5234C38.0352 15.7578 38.3047 15.9258 38.6953 16.0273V17.3164C36.9609 17.1758 35.5078 16.5234 34.3359 15.3594C32.8125 13.8438 32.0508 11.7305 32.0508 9.01953C32.0508 7.66016 32.25 6.43359 32.6484 5.33984C33.0547 4.23828 33.6523 3.30469 34.4414 2.53906C35.043 1.95312 35.6914 1.50781 36.3867 1.20312C37.082 0.898438 37.8516 0.726562 38.6953 0.6875V1.95312ZM39.6562 1.95312V0.6875C40.5 0.726562 41.2695 0.898438 41.9648 1.20312C42.668 1.50781 43.3203 1.95312 43.9219 2.53906C45.5156 4.09375 46.3125 6.25391 46.3125 9.01953C46.3125 11.7305 45.5508 13.8438 44.0273 15.3594C42.8555 16.5312 41.3984 17.1836 39.6562 17.3164V16.0273C39.8594 15.9805 40.0156 15.9219 40.125 15.8516C40.2422 15.7734 40.3477 15.6641 40.4414 15.5234C40.6523 15.2031 40.7578 14.7188 40.7578 14.0703V3.59375C40.7578 3.17969 40.6875 2.85156 40.5469 2.60938C40.4531 2.44531 40.3398 2.31641 40.207 2.22266C40.082 2.12891 39.8984 2.03906 39.6562 1.95312ZM68.2383 3.05469L74.1328 15.043C74.2734 15.3164 74.4648 15.5156 74.707 15.6406C74.918 15.75 75.0586 15.8516 75.1289 15.9453C75.207 16.0391 75.2461 16.168 75.2461 16.332C75.2461 16.543 75.168 16.7109 75.0117 16.8359C74.8789 16.9453 74.5977 17 74.168 17H68.6719C68.25 17 67.9766 16.9727 67.8516 16.918C67.5781 16.8008 67.4414 16.6016 67.4414 16.3203C67.4414 16.2188 67.4688 16.1328 67.5234 16.0625C67.5781 15.9844 67.6797 15.8906 67.8281 15.7812C68.0938 15.5859 68.2227 15.4062 68.2148 15.2422C68.207 15.1094 68.1367 14.9102 68.0039 14.6445L62.25 3.05469C62.1562 2.85937 62.0547 2.70703 61.9453 2.59766C61.8359 2.48047 61.6914 2.375 61.5117 2.28125C61.3555 2.20312 61.2461 2.11719 61.1836 2.02344C61.1289 1.92969 61.1016 1.80078 61.1016 1.63672C61.1016 1.40234 61.1836 1.23828 61.3477 1.14453C61.5195 1.05078 61.8203 1.00391 62.25 1.00391H67.7109C68.1094 1.00391 68.3945 1.05469 68.5664 1.15625C68.7461 1.25781 68.8359 1.42188 68.8359 1.64844C68.8359 1.875 68.707 2.07422 68.4492 2.24609C68.332 2.33203 68.25 2.40625 68.2031 2.46875C68.1641 2.52344 68.1445 2.60156 68.1445 2.70312C68.1445 2.8125 68.1758 2.92969 68.2383 3.05469ZM70.875 6.30078L70.2188 5L70.875 3.88672C71.0234 3.62891 71.0977 3.40625 71.0977 3.21875C71.0977 3.04687 71.043 2.87891 70.9336 2.71484C70.832 2.55078 70.6953 2.42969 70.5234 2.35156L70.1133 2.16406C70.0352 2.125 69.9648 2.05078 69.9023 1.94141C69.8477 1.83203 69.8203 1.72266 69.8203 1.61328C69.8203 1.42578 69.8867 1.27734 70.0195 1.16797C70.1523 1.05859 70.3281 1.00391 70.5469 1.00391H73.9336C74.1523 1.00391 74.332 1.05469 74.4727 1.15625C74.6211 1.25 74.6953 1.375 74.6953 1.53125C74.6953 1.71875 74.625 1.88281 74.4844 2.02344C74.4297 2.07031 74.2656 2.16797 73.9922 2.31641C73.4375 2.62109 72.9766 3.0625 72.6094 3.64062L70.875 6.30078ZM65.3438 11.2812L65.9883 12.6172L65.2617 13.8008C64.9961 14.2383 64.8633 14.5859 64.8633 14.8438C64.8633 15.2188 65.0742 15.4922 65.4961 15.6641C65.7305 15.7578 65.8906 15.8516 65.9766 15.9453C66.0625 16.0391 66.1055 16.168 66.1055 16.332C66.1055 16.5508 66.0117 16.7305 65.8242 16.8711C65.7539 16.9258 65.6758 16.9609 65.5898 16.9766C65.5039 16.9922 65.3398 17 65.0977 17H62.0742C61.8242 17 61.625 16.9492 61.4766 16.8477C61.3359 16.7383 61.2656 16.5898 61.2656 16.4023C61.2656 16.2539 61.3086 16.1328 61.3945 16.0391C61.4883 15.9375 61.6484 15.8438 61.875 15.7578C62.4609 15.5312 62.9141 15.1602 63.2344 14.6445L65.3438 11.2812ZM82.8516 1.00391V14.7734C82.8516 15.0781 82.9102 15.2969 83.0273 15.4297C83.0898 15.5078 83.1484 15.5586 83.2031 15.582C83.2578 15.5977 83.4375 15.6445 83.7422 15.7227C84.1172 15.8086 84.3047 16.0234 84.3047 16.3672C84.3047 16.5703 84.2031 16.7344 84 16.8594C83.8516 16.9531 83.6055 17 83.2617 17H82.8633H77.6367H77.332C77.0508 17 76.832 16.9492 76.6758 16.8477C76.5273 16.7383 76.4531 16.5859 76.4531 16.3906C76.4531 16.0703 76.6094 15.8594 76.9219 15.7578C77.1797 15.6719 77.3281 15.6211 77.3672 15.6055C77.4141 15.582 77.4609 15.5352 77.5078 15.4648C77.6016 15.3398 77.6484 15.1406 77.6484 14.8672V3.13672C77.6484 2.86328 77.6016 2.66406 77.5078 2.53906C77.4609 2.46875 77.4141 2.42578 77.3672 2.41016C77.3281 2.38672 77.1797 2.33203 76.9219 2.24609C76.6094 2.14453 76.4531 1.93359 76.4531 1.61328C76.4531 1.41797 76.5273 1.26953 76.6758 1.16797C76.832 1.05859 77.0508 1.00391 77.332 1.00391H77.6367H82.8516ZM83.8477 10.8711V9.61719C84.1836 9.53906 84.418 9.45703 84.5508 9.37109C84.6914 9.28516 84.8125 9.15234 84.9141 8.97266C85.0781 8.66797 85.1602 8.25781 85.1602 7.74219V3.99219C85.1602 3.625 85.1328 3.35156 85.0781 3.17188C85.0234 2.99219 84.9141 2.82813 84.75 2.67969C84.5234 2.46094 84.2188 2.32422 83.8359 2.26953V1.00391C85.4453 1.00391 86.6328 1.15625 87.3984 1.46094C88.2812 1.8125 88.9805 2.35156 89.4961 3.07812C90.0195 3.82031 90.2812 4.73047 90.2812 5.80859C90.2812 7.01172 90.0156 7.99609 89.4844 8.76172C88.9531 9.51953 88.2109 10.0781 87.2578 10.4375C86.4688 10.7266 85.332 10.8711 83.8477 10.8711ZM98.1328 1.00391V14.7734C98.1328 15.0781 98.1914 15.2969 98.3086 15.4297C98.3711 15.5078 98.4297 15.5586 98.4844 15.582C98.5391 15.5977 98.7188 15.6445 99.0234 15.7227C99.3984 15.8086 99.5859 16.0234 99.5859 16.3672C99.5859 16.5703 99.4844 16.7344 99.2812 16.8594C99.1328 16.9531 98.8867 17 98.543 17H98.1445H92.918H92.6133C92.332 17 92.1133 16.9492 91.957 16.8477C91.8086 16.7383 91.7344 16.5859 91.7344 16.3906C91.7344 16.0703 91.8906 15.8594 92.2031 15.7578C92.4609 15.6719 92.6094 15.6211 92.6484 15.6055C92.6953 15.582 92.7422 15.5352 92.7891 15.4648C92.8828 15.3398 92.9297 15.1406 92.9297 14.8672V3.13672C92.9297 2.86328 92.8828 2.66406 92.7891 2.53906C92.7422 2.46875 92.6953 2.42578 92.6484 2.41016C92.6094 2.38672 92.4609 2.33203 92.2031 2.24609C91.8906 2.14453 91.7344 1.93359 91.7344 1.61328C91.7344 1.41797 91.8086 1.26953 91.957 1.16797C92.1133 1.05859 92.332 1.00391 92.6133 1.00391H92.918H98.1328ZM101.73 9.16016C102.449 9.26953 103 9.39062 103.383 9.52344C103.773 9.65625 104.125 9.83594 104.438 10.0625C104.766 10.3047 105.016 10.5938 105.188 10.9297C105.367 11.2656 105.457 11.6211 105.457 11.9961V14.4219C105.457 14.6719 105.539 14.7969 105.703 14.7969C105.766 14.7969 105.816 14.7812 105.855 14.75C105.902 14.7109 105.965 14.6406 106.043 14.5391C106.238 14.2734 106.438 14.1406 106.641 14.1406C106.773 14.1406 106.906 14.2109 107.039 14.3516C107.172 14.4922 107.238 14.6328 107.238 14.7734C107.238 15.0156 107.121 15.3125 106.887 15.6641C106.66 16.0078 106.375 16.3164 106.031 16.5898C105.711 16.8477 105.363 17.0312 104.988 17.1406C104.613 17.2578 104.172 17.3164 103.664 17.3164C102.633 17.3164 101.828 17.0234 101.25 16.4375C100.672 15.8438 100.383 15.0195 100.383 13.9648V11.9961C100.383 11.5586 100.379 11.3047 100.371 11.2344C100.332 10.9219 100.223 10.6523 100.043 10.4258C99.8164 10.1523 99.4922 9.99219 99.0703 9.94531V8.69141C99.4922 8.62891 99.793 8.51953 99.9727 8.36328C100.129 8.22266 100.234 8.0625 100.289 7.88281C100.352 7.70312 100.383 7.4375 100.383 7.08594V3.98047C100.383 3.48828 100.285 3.12109 100.09 2.87891C99.9023 2.63672 99.5586 2.44531 99.0586 2.30469V1.00391H99.3633C100.23 1.00391 100.969 1.03516 101.578 1.09766C102.484 1.18359 103.293 1.48047 104.004 1.98828C105.027 2.71484 105.539 3.75 105.539 5.09375C105.539 6.19531 105.195 7.09766 104.508 7.80078C104.219 8.09766 103.879 8.33984 103.488 8.52734C103.105 8.71484 102.52 8.92578 101.73 9.16016ZM114.914 1.00391V17H109.699H109.395C109.113 17 108.895 16.9492 108.738 16.8477C108.59 16.7383 108.516 16.5859 108.516 16.3906C108.516 16.0703 108.672 15.8594 108.984 15.7578C109.242 15.6719 109.391 15.6211 109.43 15.6055C109.477 15.582 109.523 15.5352 109.57 15.4648C109.664 15.3398 109.711 15.1406 109.711 14.8672V3.13672C109.711 2.86328 109.664 2.66406 109.57 2.53906C109.523 2.46875 109.477 2.42578 109.43 2.41016C109.391 2.38672 109.242 2.33203 108.984 2.24609C108.672 2.14453 108.516 1.93359 108.516 1.61328C108.516 1.41797 108.59 1.26953 108.738 1.16797C108.895 1.05859 109.113 1.00391 109.395 1.00391H109.699H114.914ZM115.957 1.00391H120.68V5.15234C120.68 5.39453 120.633 5.57031 120.539 5.67969C120.445 5.78906 120.297 5.84375 120.094 5.84375C119.922 5.84375 119.797 5.80859 119.719 5.73828C119.641 5.66797 119.566 5.52344 119.496 5.30469C119.199 4.39844 118.762 3.70703 118.184 3.23047C117.613 2.75391 116.871 2.46875 115.957 2.375V1.00391ZM115.898 9.53516V8.17578C116.352 7.95703 116.688 7.71875 116.906 7.46094C117.125 7.20312 117.285 6.85938 117.387 6.42969C117.449 6.13281 117.531 5.92969 117.633 5.82031C117.734 5.70312 117.879 5.64453 118.066 5.64453C118.316 5.64453 118.488 5.74219 118.582 5.9375C118.637 6.03906 118.664 6.26953 118.664 6.62891V11.0938C118.664 11.4609 118.621 11.7148 118.535 11.8555C118.457 11.9961 118.309 12.0664 118.09 12.0664C117.91 12.0664 117.77 12.0117 117.668 11.9023C117.566 11.793 117.484 11.6094 117.422 11.3516C117.289 10.8125 117.098 10.3984 116.848 10.1094C116.605 9.82031 116.289 9.62891 115.898 9.53516ZM115.969 17V15.7344C116.477 15.6562 116.895 15.5469 117.223 15.4062C117.559 15.2656 117.895 15.0508 118.23 14.7617C118.566 14.4727 118.832 14.1758 119.027 13.8711C119.23 13.5586 119.422 13.1484 119.602 12.6406C119.688 12.3906 119.777 12.2227 119.871 12.1367C119.965 12.043 120.094 11.9961 120.258 11.9961C120.477 11.9961 120.629 12.0625 120.715 12.1953C120.801 12.3203 120.844 12.543 120.844 12.8633V17H115.969ZM128.004 0.6875V2.03516C127.52 2.16797 127.148 2.375 126.891 2.65625C126.641 2.92969 126.516 3.26953 126.516 3.67578C126.516 4.06641 126.621 4.41016 126.832 4.70703C127.043 4.99609 127.387 5.27344 127.863 5.53906C128.191 5.71875 128.934 6.0625 130.09 6.57031C130.793 6.875 131.336 7.15234 131.719 7.40234C132.109 7.64453 132.477 7.94922 132.82 8.31641C133.742 9.28516 134.203 10.4375 134.203 11.7734C134.203 12.7812 133.953 13.7031 133.453 14.5391C132.953 15.375 132.266 16.0312 131.391 16.5078C130.922 16.7578 130.406 16.9531 129.844 17.0938C129.289 17.2422 128.77 17.3164 128.285 17.3164V15.9805C128.965 15.8164 129.453 15.5898 129.75 15.3008C130.055 15.0039 130.207 14.6055 130.207 14.1055C130.207 13.582 129.973 13.1211 129.504 12.7227C129.191 12.4648 128.598 12.1445 127.723 11.7617C126.762 11.3398 126.102 11.0391 125.742 10.8594C125.391 10.6797 125.051 10.4688 124.723 10.2266C123.254 9.17969 122.52 7.78516 122.52 6.04297C122.52 5.15234 122.703 4.33203 123.07 3.58203C123.438 2.82422 123.949 2.21484 124.605 1.75391C125.52 1.11328 126.652 0.757812 128.004 0.6875ZM128.93 2.03516V0.746094C129.398 0.777344 129.805 0.839844 130.148 0.933594C130.492 1.01953 130.98 1.19531 131.613 1.46094C131.77 1.52344 131.898 1.55469 132 1.55469C132.148 1.55469 132.258 1.50391 132.328 1.40234L132.586 1.0625C132.711 0.890625 132.863 0.804688 133.043 0.804688C133.254 0.804688 133.406 0.882813 133.5 1.03906C133.602 1.1875 133.652 1.42578 133.652 1.75391V5.62109C133.652 5.84766 133.586 6.03516 133.453 6.18359C133.328 6.32422 133.164 6.39453 132.961 6.39453C132.805 6.39453 132.66 6.34375 132.527 6.24219C132.457 6.17969 132.398 6.10547 132.352 6.01953C132.312 5.92578 132.273 5.77344 132.234 5.5625C132.148 5.17969 132 4.78516 131.789 4.37891C131.578 3.97266 131.332 3.60937 131.051 3.28906C130.488 2.65625 129.781 2.23828 128.93 2.03516ZM127.395 15.9805V17.3164C126.754 17.3164 126.047 17.1328 125.273 16.7656C124.984 16.6328 124.785 16.5469 124.676 16.5078C124.566 16.4688 124.461 16.4492 124.359 16.4492C124.203 16.4492 124.086 16.4766 124.008 16.5312C123.93 16.5781 123.805 16.7031 123.633 16.9062C123.492 17.0781 123.34 17.1641 123.176 17.1641C122.738 17.1641 122.52 16.8281 122.52 16.1562V11.8906C122.52 11.6719 122.582 11.4883 122.707 11.3398C122.832 11.1836 122.988 11.1016 123.176 11.0938C123.348 11.0859 123.48 11.1367 123.574 11.2461C123.676 11.3477 123.762 11.5312 123.832 11.7969C124.012 12.4688 124.27 13.0977 124.605 13.6836C124.949 14.2695 125.348 14.7656 125.801 15.1719C126.262 15.5938 126.793 15.8633 127.395 15.9805ZM141.457 0.6875V2.03516C140.973 2.16797 140.602 2.375 140.344 2.65625C140.094 2.92969 139.969 3.26953 139.969 3.67578C139.969 4.06641 140.074 4.41016 140.285 4.70703C140.496 4.99609 140.84 5.27344 141.316 5.53906C141.645 5.71875 142.387 6.0625 143.543 6.57031C144.246 6.875 144.789 7.15234 145.172 7.40234C145.562 7.64453 145.93 7.94922 146.273 8.31641C147.195 9.28516 147.656 10.4375 147.656 11.7734C147.656 12.7812 147.406 13.7031 146.906 14.5391C146.406 15.375 145.719 16.0312 144.844 16.5078C144.375 16.7578 143.859 16.9531 143.297 17.0938C142.742 17.2422 142.223 17.3164 141.738 17.3164V15.9805C142.418 15.8164 142.906 15.5898 143.203 15.3008C143.508 15.0039 143.66 14.6055 143.66 14.1055C143.66 13.582 143.426 13.1211 142.957 12.7227C142.645 12.4648 142.051 12.1445 141.176 11.7617C140.215 11.3398 139.555 11.0391 139.195 10.8594C138.844 10.6797 138.504 10.4688 138.176 10.2266C136.707 9.17969 135.973 7.78516 135.973 6.04297C135.973 5.15234 136.156 4.33203 136.523 3.58203C136.891 2.82422 137.402 2.21484 138.059 1.75391C138.973 1.11328 140.105 0.757812 141.457 0.6875ZM142.383 2.03516V0.746094C142.852 0.777344 143.258 0.839844 143.602 0.933594C143.945 1.01953 144.434 1.19531 145.066 1.46094C145.223 1.52344 145.352 1.55469 145.453 1.55469C145.602 1.55469 145.711 1.50391 145.781 1.40234L146.039 1.0625C146.164 0.890625 146.316 0.804688 146.496 0.804688C146.707 0.804688 146.859 0.882813 146.953 1.03906C147.055 1.1875 147.105 1.42578 147.105 1.75391V5.62109C147.105 5.84766 147.039 6.03516 146.906 6.18359C146.781 6.32422 146.617 6.39453 146.414 6.39453C146.258 6.39453 146.113 6.34375 145.98 6.24219C145.91 6.17969 145.852 6.10547 145.805 6.01953C145.766 5.92578 145.727 5.77344 145.688 5.5625C145.602 5.17969 145.453 4.78516 145.242 4.37891C145.031 3.97266 144.785 3.60937 144.504 3.28906C143.941 2.65625 143.234 2.23828 142.383 2.03516ZM140.848 15.9805V17.3164C140.207 17.3164 139.5 17.1328 138.727 16.7656C138.438 16.6328 138.238 16.5469 138.129 16.5078C138.02 16.4688 137.914 16.4492 137.812 16.4492C137.656 16.4492 137.539 16.4766 137.461 16.5312C137.383 16.5781 137.258 16.7031 137.086 16.9062C136.945 17.0781 136.793 17.1641 136.629 17.1641C136.191 17.1641 135.973 16.8281 135.973 16.1562V11.8906C135.973 11.6719 136.035 11.4883 136.16 11.3398C136.285 11.1836 136.441 11.1016 136.629 11.0938C136.801 11.0859 136.934 11.1367 137.027 11.2461C137.129 11.3477 137.215 11.5312 137.285 11.7969C137.465 12.4688 137.723 13.0977 138.059 13.6836C138.402 14.2695 138.801 14.7656 139.254 15.1719C139.715 15.5938 140.246 15.8633 140.848 15.9805Z" fill="#121212"/>
<path d="M54.1641 1.00391V17H48.9492H48.6445C48.3633 17 48.1445 16.9492 47.9883 16.8477C47.8398 16.7383 47.7656 16.5859 47.7656 16.3906C47.7656 16.0703 47.9219 15.8594 48.2344 15.7578C48.4922 15.6719 48.6406 15.6211 48.6797 15.6055C48.7266 15.582 48.7734 15.5352 48.8203 15.4648C48.9141 15.3398 48.9609 15.1406 48.9609 14.8672V3.13672C48.9609 2.86328 48.9141 2.66406 48.8203 2.53906C48.7734 2.46875 48.7266 2.42578 48.6797 2.41016C48.6406 2.38672 48.4922 2.33203 48.2344 2.24609C47.9219 2.14453 47.7656 1.93359 47.7656 1.61328C47.7656 1.41797 47.8398 1.26953 47.9883 1.16797C48.1445 1.05859 48.3633 1.00391 48.6445 1.00391H48.9492H54.1641ZM55.207 1.00391H59.9297V5.15234C59.9297 5.39453 59.8828 5.57031 59.7891 5.67969C59.6953 5.78906 59.5469 5.84375 59.3438 5.84375C59.1719 5.84375 59.0469 5.80859 58.9688 5.73828C58.8906 5.66797 58.8164 5.52344 58.7461 5.30469C58.4492 4.39844 58.0117 3.70703 57.4336 3.23047C56.8633 2.75391 56.1211 2.46875 55.207 2.375V1.00391ZM55.1484 9.53516V8.17578C55.6016 7.95703 55.9375 7.71875 56.1562 7.46094C56.375 7.20312 56.5352 6.85938 56.6367 6.42969C56.6992 6.13281 56.7812 5.92969 56.8828 5.82031C56.9844 5.70312 57.1289 5.64453 57.3164 5.64453C57.5664 5.64453 57.7383 5.74219 57.832 5.9375C57.8867 6.03906 57.9141 6.26953 57.9141 6.62891V11.0938C57.9141 11.4609 57.8711 11.7148 57.7852 11.8555C57.707 11.9961 57.5586 12.0664 57.3398 12.0664C57.1602 12.0664 57.0195 12.0117 56.918 11.9023C56.8164 11.793 56.7344 11.6094 56.6719 11.3516C56.5391 10.8125 56.3477 10.3984 56.0977 10.1094C55.8555 9.82031 55.5391 9.62891 55.1484 9.53516ZM55.2188 17V15.7344C55.7266 15.6562 56.1445 15.5469 56.4727 15.4062C56.8086 15.2656 57.1445 15.0508 57.4805 14.7617C57.8164 14.4727 58.082 14.1758 58.2773 13.8711C58.4805 13.5586 58.6719 13.1484 58.8516 12.6406C58.9375 12.3906 59.0273 12.2227 59.1211 12.1367C59.2148 12.043 59.3438 11.9961 59.5078 11.9961C59.7266 11.9961 59.8789 12.0625 59.9648 12.1953C60.0508 12.3203 60.0938 12.543 60.0938 12.8633V17H55.2188Z" fill="#007D8B"/>
</svg>
