<svg width="48" height="48" viewBox="0 0 48 48" fill="none" xmlns="http://www.w3.org/2000/svg">
<path d="M23.9306 0C30.4326 0 31.2438 0.0239305 33.7948 0.143584C36.3435 0.263237 38.0784 0.662879 39.6052 1.25636C41.1846 1.8642 42.5152 2.68741 43.8457 4.01556C45.0626 5.21184 46.0041 6.65891 46.6049 8.25607C47.196 9.78045 47.598 11.5178 47.7177 14.0664C47.8302 16.6174 47.8613 17.4287 47.8613 23.9306C47.8613 30.4326 47.8373 31.2438 47.7177 33.7948C47.598 36.3435 47.196 38.0784 46.6049 39.6052C46.0059 41.2032 45.0641 42.6507 43.8457 43.8457C42.6491 45.0621 41.2021 46.0037 39.6052 46.6049C38.0808 47.196 36.3435 47.598 33.7948 47.7177C31.2438 47.8302 30.4326 47.8613 23.9306 47.8613C17.4287 47.8613 16.6174 47.8373 14.0664 47.7177C11.5178 47.598 9.78284 47.196 8.25607 46.6049C6.65828 46.0054 5.21096 45.0636 4.01556 43.8457C2.79846 42.6496 1.85685 41.2025 1.25636 39.6052C0.662879 38.0808 0.263237 36.3435 0.143584 33.7948C0.0311097 31.2438 0 30.4326 0 23.9306C0 17.4287 0.0239305 16.6174 0.143584 14.0664C0.263237 11.5154 0.662879 9.78284 1.25636 8.25607C1.85519 6.65793 2.79702 5.21047 4.01556 4.01556C5.2113 2.79804 6.65853 1.85637 8.25607 1.25636C9.78284 0.662879 11.5154 0.263237 14.0664 0.143584C16.6174 0.0311097 17.4287 0 23.9306 0ZM23.9306 11.9653C20.7572 11.9653 17.7138 13.2259 15.4699 15.4699C13.2259 17.7138 11.9653 20.7572 11.9653 23.9306C11.9653 27.104 13.2259 30.1475 15.4699 32.3914C17.7138 34.6353 20.7572 35.8959 23.9306 35.8959C27.104 35.8959 30.1475 34.6353 32.3914 32.3914C34.6353 30.1475 35.8959 27.104 35.8959 23.9306C35.8959 20.7572 34.6353 17.7138 32.3914 15.4699C30.1475 13.2259 27.104 11.9653 23.9306 11.9653ZM39.4855 11.3671C39.4855 10.5737 39.1704 9.81284 38.6094 9.25186C38.0484 8.69088 37.2876 8.37572 36.4942 8.37572C35.7009 8.37572 34.94 8.69088 34.379 9.25186C33.818 9.81284 33.5029 10.5737 33.5029 11.3671C33.5029 12.1604 33.818 12.9213 34.379 13.4822C34.94 14.0432 35.7009 14.3584 36.4942 14.3584C37.2876 14.3584 38.0484 14.0432 38.6094 13.4822C39.1704 12.9213 39.4855 12.1604 39.4855 11.3671ZM23.9306 16.7514C25.8347 16.7514 27.6607 17.5078 29.0071 18.8542C30.3534 20.2005 31.1098 22.0266 31.1098 23.9306C31.1098 25.8347 30.3534 27.6607 29.0071 29.0071C27.6607 30.3534 25.8347 31.1098 23.9306 31.1098C22.0266 31.1098 20.2005 30.3534 18.8542 29.0071C17.5078 27.6607 16.7514 25.8347 16.7514 23.9306C16.7514 22.0266 17.5078 20.2005 18.8542 18.8542C20.2005 17.5078 22.0266 16.7514 23.9306 16.7514Z" fill="#F8F8F8"/>
</svg>
