<?xml version="1.0" standalone="no"?>
<!DOCTYPE svg PUBLIC "-//W3C//DTD SVG 1.0//EN" "http://www.w3.org/TR/2001/REC-SVG-20010904/DTD/svg10.dtd">
<svg xmlns="http://www.w3.org/2000/svg" xmlns:xlink="http://www.w3.org/1999/xlink" id="body_1" width="31" height="23">

<g transform="matrix(0.023 0 0 0.023 3.9999995 -0)">
	<g>
		<g transform="matrix(0.1 0 -0 -0.1 0 511)">
            <path d="M427.3 4332C 261.7 4239.6 100 3981.6 100 3804.4C 100 3627.2998 261.7 3369.2998 427.3 3276.9L427.3 3276.9L581.3 3188.2998L5055.8 3199.7998C 9507.199 3207.4998 9530.3 3207.4998 9634.199 3288.4C 9838.299 3438.5999 9899.899 3561.7998 9899.899 3804.4C 9899.899 4047 9838.3 4170.1997 9634.199 4320.4C 9530.299 4401.3 9507.1 4401.3 5055.7993 4409L5055.7993 4409L581.2993 4420.5L427.3 4332z" stroke="none" fill="#000000" fill-rule="nonzero" />
            <path d="M427.3 635.3C 261.7 542.9 100 284.9 100 107.8C 100 -69.3 261.7 -327.3 427.3 -419.7L427.3 -419.7L581.3 -508.30002L5055.8 -496.80002C 9507.199 -489.1 9530.3 -489.1 9634.199 -408.2C 9838.4 -258 9900 -134.8 9900 107.8C 9900 350.40002 9838.4 473.59998 9634.3 623.8C 9530.399 704.7 9507.2 704.7 5055.9 712.39996L5055.9 712.39996L581.3 723.9L427.3 635.3z" stroke="none" fill="#000000" fill-rule="nonzero" />
            <path d="M465.8 -3034.4C 288.69998 -3126.7998 223.19998 -3200 153.9 -3381C 42.199997 -3669.8 165.5 -3985.6 442.69998 -4128.1C 596.69995 -4205.1 627.5 -4205.1 5063.5 -4197.4C 9503.4 -4185.9 9530.3 -4185.9 9634.3 -4105C 9838.399 -3954.8 9900 -3831.6 9900 -3589C 9900 -3346.4 9838.4 -3223.2 9634.3 -3073C 9530.399 -2992.2 9507.2 -2992.2 5055.9 -2980.6C 1051.1 -2972.8 569.8 -2980.5 465.8 -3034.4z" stroke="none" fill="#000000" fill-rule="nonzero" />
		</g>
	</g>
</g>
</svg>