<svg width="48" height="34" viewBox="0 0 48 34" fill="none" xmlns="http://www.w3.org/2000/svg">
<path d="M19.1445 24.4277L31.5645 17.2485L19.1445 10.0693V24.4277ZM46.8083 5.69002C47.1194 6.81476 47.3348 8.32239 47.4784 10.2368C47.6459 12.1513 47.7177 13.8025 47.7177 15.2383L47.8613 17.2485C47.8613 22.4893 47.4784 26.3422 46.8083 28.807C46.2101 30.9608 44.8221 32.3487 42.6683 32.947C41.5436 33.2581 39.4855 33.4735 36.3267 33.6171C33.2157 33.7846 30.368 33.8564 27.7356 33.8564L23.9306 34C13.9037 34 7.6578 33.6171 5.19295 32.947C3.03919 32.3487 1.65121 30.9608 1.05295 28.807C0.74185 27.6823 0.526474 26.1746 0.38289 24.2602C0.215376 22.3457 0.143584 20.6945 0.143584 19.2587L0 17.2485C0 12.0077 0.38289 8.15487 1.05295 5.69002C1.65121 3.53626 3.03919 2.14828 5.19295 1.55002C6.31769 1.23892 8.37572 1.02354 11.5346 0.87996C14.6455 0.712446 17.4933 0.640654 20.1257 0.640654L23.9306 0.49707C33.9576 0.49707 40.2035 0.879961 42.6683 1.55002C44.8221 2.14828 46.2101 3.53626 46.8083 5.69002Z" fill="#F8F8F8"/>
</svg>
